<svg id="eqTcjkWfn6y1" xmlns="http://www.w3.org/2000/svg" xmlns:xlink="http://www.w3.org/1999/xlink" viewBox="0 0 537 316" shape-rendering="geometricPrecision" text-rendering="geometricPrecision"><defs><path id="eqTcjkWfn6y2" d="M112.147,283.468c-45.6629,0-111.729-76.186-111.729-213.905v-8.2583l7.3676-2.2669c0,0,27.9324-4.0482,52.3024-17.6501c17.974-9.9584,45.097-34.8142,45.339-35.0571l6.397-6.1532l10.606-.08096-3.563,5.66746c.243.2429,26.556,21.2124,46.23,33.5998c21.861,13.7637,50.279,19.836,50.522,19.917l8.258,1.7002v8.5821c0,79.02-20.484,129.46-37.729,157.96-20.808,34.571-49.226,55.945-74.001,55.945Z"/></defs><g><g transform="translate(-278-73)"><g transform="translate(278 73)"><path d="M43.0724,147.191c0,1.943-1.5383,3.482-3.4814,3.482h-35.3c-1.94313,0-3.48143-1.539-3.48143-3.482v-22.831c0-1.944,1.5383-3.482,3.48143-3.482h35.3c1.9431,0,3.4814,1.538,3.4814,3.482v22.831Z" fill="#fff"/><path d="M39.5911,151.482h-35.30004C1.94312,151.482,0,149.539,0,147.191v-22.831c0-2.348,1.94312-4.291,4.29106-4.291h35.30004c2.3479,0,4.291,1.943,4.291,4.291v22.831c0,2.348-1.9431,4.291-4.291,4.291ZM4.29106,121.607c-1.45734,0-2.67179,1.214-2.67179,2.672v22.831c0,1.458,1.21445,2.672,2.67179,2.672h35.30004c1.4573,0,2.6718-1.214,2.6718-2.672v-22.831c0-1.458-1.2145-2.672-2.6718-2.672h-35.30004Z" fill="#d9d9d9"/><path d="M37.0005,131.97h-19.9169c-.4858,0-.8097-.324-.8097-.81c0-.485.3239-.809.8097-.809h19.9169c.4858,0,.8097.324.8097.809c0,.486-.3239.81-.8097.81Z" fill="#d9d9d9"/><path d="M11.993547,126.303c-1.1335-.648-2.034797-.81-2.034797-.81s-.871713.243-2.005203.81c-.72867.404-1.233337.89-1.233337.89c0,3.644,3.15758,5.344,3.15758,5.344s3.15761-1.619,3.15761-5.344c.1619,0-.313153-.486-1.041853-.89Z" fill="#edf5ff"/><path d="M19.9169,138.366h-13.11606c-.48578,0-.80963-.324-.80963-.809c0-.486.32385-.81.80963-.81h13.11606c.4858,0,.8096.324.8096.81c0,.485-.3238.809-.8096.809Z" fill="#d9d9d9"/><path d="M37.1621,138.366h-13.0351c-.4858,0-.8096-.324-.8096-.809c0-.486.3238-.81.8096-.81h13.0351c.4858,0,.8097.324.8097.81c0,.485-.4049.809-.8097.809Z" fill="#d9d9d9"/><path d="M24.127,144.196h-17.32616c-.48578,0-.80963-.324-.80963-.81s.32385-.81.80963-.81h17.24516c.4858,0,.8097.324.8097.81s-.3239.81-.7287.81Z" fill="#d9d9d9"/><path d="M36.3524,144.196h-8.4202c-.4858,0-.8096-.324-.8096-.81s.3238-.81.8096-.81h8.4202c.4858,0,.8096.324.8096.81s-.3238.81-.8096.81Z" fill="#d9d9d9"/><path d="M499.301,292.764h18.217c10.039,0,18.135-8.097,18.135-18.136v-16.598c0-.89-.728-1.619-1.619-1.619h-51.25c-.89,0-1.619.729-1.619,1.619v16.598c0,10.039,8.096,18.136,18.136,18.136Z" fill="#fff"/><path d="M497.601,292.764h21.05c3.481,0,17.002-4.048,17.002-15.383v-19.512c0-.81,4.696,12.063-11.335,26.313-12.387,10.93-26.717,8.582-26.717,8.582Z" fill="#f2f2f2"/><path d="M520.432,210.991c-.566-9.068-1.538-18.055-2.995-27.123-1.458-9.068-3.32-18.055-6.315-27.123-.162-.485-.648-.971-1.296-1.133-.971-.243-2.024.243-2.348,1.133-3.076,9.068-4.858,18.055-6.315,27.123s-2.429,18.055-2.996,27.123l2.753,45.42h18.865l.647-45.42Z" fill="#34b151"/><path d="M519.785,257.221h-18.865c-.404,0-.809-.324-.809-.729l-2.672-45.42v-.081c.648-9.635,1.619-18.541,2.996-27.204c1.295-8.015,3.076-17.488,6.396-27.285.405-1.214,1.862-1.943,3.319-1.619.891.243,1.619.81,1.862,1.619c3.32,9.797,5.101,19.27,6.396,27.285c1.377,8.744,2.348,17.65,2.996,27.204v.081l-.648,45.42c-.162.405-.566.729-.971.729Zm-18.136-1.619h17.326l.648-44.611c-.648-9.554-1.619-18.379-2.996-27.042-1.295-7.934-3.076-17.326-6.315-27.042-.081-.243-.405-.486-.729-.567-.566-.161-1.214.162-1.376.567-3.238,9.635-5.02,19.108-6.315,27.042-1.376,8.663-2.348,17.488-2.996,27.042l2.753,44.611Z" fill="#333"/><path d="M509.583,256.411c.081-.324.081-.567.162-.89c1.215-7.935,3.077-15.788,4.939-23.642c2.024-8.096,4.372-16.192,7.125-24.208c2.753-8.015,5.829-16.031,9.958-23.884.324-.648,1.296-.972,2.106-.648.566.162.89.648.971,1.053.972,8.501.891,16.921.567,25.26-.324,8.34-1.134,16.679-2.186,24.856-.972,7.125-2.024,14.25-3.482,21.374" fill="#dff5e3"/><path d="M488.614,256.006c-.324-.971-.648-2.024-.891-3.076-1.862-8.178-3.076-16.355-4.21-24.613-1.052-8.259-1.862-16.517-2.186-24.856s-.324-16.759.567-25.261c.081-.728.891-1.295,1.7-1.214.567.081,1.053.405,1.296.81c4.048,7.853,7.124,15.868,9.958,23.884c1.053,3.157,2.105,6.315,3.077,9.473c1.457,4.938,2.833,9.877,4.129,14.816c2.024,8.096,3.886,16.273,5.101,24.532.242,1.862.323,3.724.404,5.667" fill="#dff5e3"/><path d="M508.854,256.816c0,0-.081,0-.162,0-.404-.081-.728-.486-.647-.891c1.133-7.61,8.582-36.919,13.035-48.416c2.429-7.044,5.586-15.464,9.958-23.965.567-1.052,1.862-1.538,3.077-1.052.81.323,1.376.971,1.457,1.781c1.053,9.23.891,17.974.648,25.422-.324,8.016-1.053,16.193-2.186,24.937-.891,6.882-2.024,14.25-3.481,21.374-.081.405-.486.729-.972.648-.405-.081-.729-.486-.648-.972c1.539-7.124,2.591-14.411,3.482-21.293c1.133-8.744,1.862-16.84,2.186-24.856.324-7.286.404-16.03-.567-25.179c0-.162-.162-.324-.405-.405-.486-.162-.971,0-1.052.324-4.372,8.42-7.449,16.678-9.878,23.722-4.453,11.416-11.821,40.563-12.954,48.092-.162.405-.486.729-.891.729Z"/><path d="M520.433,212.205c-.405,0-.81-.324-.81-.729-.648-9.553-1.619-18.378-2.996-27.041-1.295-7.935-3.076-17.327-6.315-27.042-.081-.243-.405-.486-.729-.567-.566-.162-1.214.162-1.376.567-3.238,9.634-5.02,19.107-6.315,27.042-1.376,8.663-2.348,17.488-2.996,27.041c0,.486-.405.81-.89.729-.486,0-.81-.405-.729-.891.648-9.634,1.619-18.54,2.996-27.203c1.295-8.016,3.076-17.488,6.396-27.285.405-1.214,1.862-1.943,3.319-1.619.891.243,1.62.809,1.862,1.619c3.32,9.797,5.101,19.269,6.397,27.285c1.376,8.744,2.347,17.65,2.995,27.203c0,.486-.324.891-.809.891Z"/><path d="M507.559,256.816c-.404,0-.809-.324-.809-.81c0-1.862-.162-3.724-.405-5.586-1.295-8.582-3.32-17.084-5.101-24.37-2.186-8.582-4.453-16.436-7.125-24.127-2.428-7.044-5.505-15.383-9.877-23.723-.081-.162-.324-.323-.648-.323-.486,0-.809.242-.89.485-1.053,9.149-.891,17.812-.567,25.18.324,8.015,1.052,16.112,2.186,24.856.971,7.448,2.267,16.03,4.21,24.532.243.971.567,2.024.891,2.995.161.405-.081.891-.486,1.053s-.891-.081-1.053-.486c-.324-1.053-.647-2.024-.89-3.077-2.024-8.582-3.239-17.245-4.21-24.693-1.134-8.745-1.863-16.922-2.186-24.937-.324-7.368-.405-16.193.647-25.423.162-1.133,1.296-2.024,2.591-1.943.81.081,1.619.567,1.943,1.215c4.372,8.501,7.53,16.84,9.959,23.965c2.671,7.691,5.019,15.707,7.205,24.289c1.782,7.367,3.887,15.95,5.101,24.613.243,1.943.405,3.886.405,5.748-.081.162-.405.567-.891.567Z"/><path d="M519.785,256.087c-.081,0-.081,0-.162,0-.405-.081-.729-.486-.648-.971l4.534-23.723c.081-.404.486-.728.971-.647.405.081.729.485.648.971l-4.534,23.722c-.081.405-.486.648-.809.648Z"/><path d="M498.329,256.816c-.405,0-.728-.243-.809-.648l-5.83-30.604c-.081-.405.243-.89.648-.971s.891.242.971.647l5.83,30.604c.081.405-.243.891-.648.972-.081,0-.162,0-.162,0Z"/><path d="M508.855,256.816c-.486,0-.81-.324-.81-.81v-62.584c0-.486.324-.81.81-.81.485,0,.809.324.809.81v62.584c0,.405-.405.81-.809.81Z"/><path d="M517.437,270.094h-35.381c-.891,0-1.619-.729-1.619-1.619c0-.891.728-1.62,1.619-1.62h35.381c.89,0,1.619.729,1.619,1.62c0,.89-.729,1.619-1.619,1.619Z" fill="#d9d9d9"/><path d="M517.437,280.295h-34.814c-.891,0-1.62-.728-1.62-1.619s.729-1.619,1.62-1.619h34.814c.891,0,1.619.728,1.619,1.619s-.728,1.619-1.619,1.619Z" fill="#d9d9d9"/><path d="M517.518,293.573h-18.217c-10.444,0-18.946-8.501-18.946-18.945v-16.598c0-1.376,1.053-2.429,2.429-2.429h51.25c1.377,0,2.429,1.053,2.429,2.429v16.598c-.081,10.444-8.501,18.945-18.945,18.945Zm-34.734-36.352c-.485,0-.809.323-.809.809v16.598c0,9.553,7.772,17.326,17.326,17.326h18.217c9.553,0,17.326-7.773,17.326-17.326v-16.598c0-.486-.324-.809-.81-.809h-51.25Z"/><path d="M527.8,296.569h-38.862c-.891,0-1.62-.729-1.62-1.619c0-.891.729-1.62,1.62-1.62h38.862c.891,0,1.619.729,1.619,1.62-.081.89-.728,1.619-1.619,1.619Z" fill="#f2f2f2"/><path d="M140.147,291.468c-45.6629,0-111.729-76.186-111.729-213.905v-8.2583l7.3676-2.2669c0,0,27.9324-4.0482,52.3024-17.6501c17.974-9.9584,45.097-34.8142,45.339-35.0571l6.397-6.1532l10.606-.08096-3.563,5.66746c.243.2429,26.556,21.2124,46.23,33.5998c21.861,13.7637,50.279,19.836,50.522,19.917l8.258,1.7002v8.5821c0,79.02-20.484,129.46-37.729,157.96-20.808,34.571-49.226,55.945-74.001,55.945Z" fill="#f2f2f2"/><g transform="translate(28 8)"><g mask="url(#eqTcjkWfn6y67)"><g><g transform="translate(-32 6)"><line x1="0.0332" y1="1.2212" x2="288.263" y2="1.2212" fill="none" fill-rule="evenodd" stroke="#d9d9d9" stroke-width="1.61927"/><line x1="0.03271" y1="9.8843" x2="288.262" y2="9.8843" fill="none" fill-rule="evenodd" stroke="#d9d9d9" stroke-width="1.61927"/><line x1="0.03271" y1="18.5474" x2="288.262" y2="18.5474" fill="none" fill-rule="evenodd" stroke="#d9d9d9" stroke-width="1.61927"/><line x1="0.03271" y1="27.2104" x2="288.262" y2="27.2104" fill="none" fill-rule="evenodd" stroke="#d9d9d9" stroke-width="1.61927"/><line x1="0.03271" y1="35.8735" x2="288.262" y2="35.8735" fill="none" fill-rule="evenodd" stroke="#d9d9d9" stroke-width="1.61927"/><line x1="0.03271" y1="44.5366" x2="288.262" y2="44.5366" fill="none" fill-rule="evenodd" stroke="#d9d9d9" stroke-width="1.61927"/><line x1="0.03271" y1="53.1997" x2="288.262" y2="53.1997" fill="none" fill-rule="evenodd" stroke="#d9d9d9" stroke-width="1.61927"/><line x1="0.03271" y1="61.8628" x2="288.262" y2="61.8628" fill="none" fill-rule="evenodd" stroke="#d9d9d9" stroke-width="1.61927"/><line x1="0.03271" y1="70.5259" x2="288.262" y2="70.5259" fill="none" fill-rule="evenodd" stroke="#d9d9d9" stroke-width="1.61927"/><line x1="0.03271" y1="79.189" x2="288.262" y2="79.189" fill="none" fill-rule="evenodd" stroke="#d9d9d9" stroke-width="1.61927"/><line x1="0.03271" y1="87.771" x2="288.262" y2="87.771" fill="none" fill-rule="evenodd" stroke="#d9d9d9" stroke-width="1.61927"/><line x1="0.03271" y1="96.434" x2="288.262" y2="96.434" fill="none" fill-rule="evenodd" stroke="#d9d9d9" stroke-width="1.61927"/><line x1="0.03271" y1="105.097" x2="288.262" y2="105.097" fill="none" fill-rule="evenodd" stroke="#d9d9d9" stroke-width="1.61927"/><line x1="0.03271" y1="113.76" x2="288.262" y2="113.76" fill="none" fill-rule="evenodd" stroke="#d9d9d9" stroke-width="1.61927"/><line x1="0.03271" y1="122.423" x2="288.262" y2="122.423" fill="none" fill-rule="evenodd" stroke="#d9d9d9" stroke-width="1.61927"/><line x1="0.03271" y1="131.086" x2="288.262" y2="131.086" fill="none" fill-rule="evenodd" stroke="#d9d9d9" stroke-width="1.61927"/><line x1="0.03271" y1="139.75" x2="288.262" y2="139.75" fill="none" fill-rule="evenodd" stroke="#d9d9d9" stroke-width="1.61927"/><line x1="0.03271" y1="148.413" x2="288.262" y2="148.413" fill="none" fill-rule="evenodd" stroke="#d9d9d9" stroke-width="1.61927"/><line x1="0.03271" y1="157.076" x2="288.262" y2="157.076" fill="none" fill-rule="evenodd" stroke="#d9d9d9" stroke-width="1.61927"/><line x1="0.03271" y1="165.739" x2="288.262" y2="165.739" fill="none" fill-rule="evenodd" stroke="#d9d9d9" stroke-width="1.61927"/><line x1="0.03271" y1="174.402" x2="288.262" y2="174.402" fill="none" fill-rule="evenodd" stroke="#d9d9d9" stroke-width="1.61927"/><line x1="0.03271" y1="183.065" x2="288.262" y2="183.065" fill="none" fill-rule="evenodd" stroke="#d9d9d9" stroke-width="1.61927"/><line x1="0.03271" y1="191.728" x2="288.262" y2="191.728" fill="none" fill-rule="evenodd" stroke="#d9d9d9" stroke-width="1.61927"/><line x1="0.03271" y1="200.391" x2="288.262" y2="200.391" fill="none" fill-rule="evenodd" stroke="#d9d9d9" stroke-width="1.61927"/><line x1="0.03271" y1="209.054" x2="288.262" y2="209.054" fill="none" fill-rule="evenodd" stroke="#d9d9d9" stroke-width="1.61927"/><line x1="0.03271" y1="217.717" x2="288.262" y2="217.717" fill="none" fill-rule="evenodd" stroke="#d9d9d9" stroke-width="1.61927"/><line x1="0.03271" y1="226.38" x2="288.262" y2="226.38" fill="none" fill-rule="evenodd" stroke="#d9d9d9" stroke-width="1.61927"/><line x1="0.03271" y1="235.043" x2="288.262" y2="235.043" fill="none" fill-rule="evenodd" stroke="#d9d9d9" stroke-width="1.61927"/><line x1="0.03271" y1="243.707" x2="288.262" y2="243.707" fill="none" fill-rule="evenodd" stroke="#d9d9d9" stroke-width="1.61927"/><line x1="0.03271" y1="252.289" x2="288.262" y2="252.289" fill="none" fill-rule="evenodd" stroke="#d9d9d9" stroke-width="1.61927"/><line x1="0.03271" y1="260.952" x2="288.262" y2="260.952" fill="none" fill-rule="evenodd" stroke="#d9d9d9" stroke-width="1.61927"/><line x1="0.03271" y1="269.615" x2="288.262" y2="269.615" fill="none" fill-rule="evenodd" stroke="#d9d9d9" stroke-width="1.61927"/></g></g><mask id="eqTcjkWfn6y67" mask-type="luminance"><use width="223.459" height="283.371552" xlink:href="#eqTcjkWfn6y2" fill="#fff" fill-rule="evenodd"/></mask></g></g><path d="M151.32,291.468c-45.663,0-111.7292-76.186-111.7292-213.9048v-9.2298l9.0679-1.1335c.2429,0,26.1512-3.5624,50.5212-17.0833c17.9741-9.9585,45.0961-35.4619,45.3391-35.7048l6.477-6.15326l6.963,5.58646c.243.2429,26.556,21.2124,46.23,33.5998c21.86,13.7638,50.279,19.836,50.521,19.917l8.259,1.7002v8.5822c0,79.0198-20.484,129.4608-37.729,157.9598-20.727,34.49-49.145,55.864-73.92,55.864Z" fill="#fff"/><path d="M151.32,292.278c-45.987,0-112.5388-76.43-112.5388-214.715v-9.2298c0-.4048.3239-.7287.7287-.8096l9.0679-1.1335c.2429,0,25.9893-3.4814,50.2783-17.0023C116.506,39.5102,142.9,14.8164,144.034,13.7639l6.477-6.15322c.324-.24289.728-.32386,1.052-.08097l6.963,5.58649c.243.2429,26.475,21.1314,46.149,33.5188c21.698,13.6828,50.036,19.7551,50.278,19.836l8.259,1.7003c.405.0809.647.4048.647.8096v8.5821c0,79.182-20.564,129.865-37.89,158.364-20.97,34.815-49.55,56.351-74.649,56.351ZM40.4005,69.0619v8.5821c0,137.152,65.5805,213.096,110.9195,213.096c24.532,0,52.627-21.294,73.353-55.541c17.164-28.337,37.648-78.697,37.648-157.555v-7.9344l-7.61-1.6193c-.324-.081-28.904-6.2342-50.845-20.0789-19.675-12.4684-45.988-33.4379-46.311-33.5998l-6.397-5.10069-5.991,5.66739c-1.133,1.0526-27.689,25.9083-45.5013,35.8668C74.9719,64.447,48.9826,67.9284,48.7397,67.9284l-8.3392,1.1335Z" fill="#1e120d"/><path d="M252.686,77.6441c0,135.3709-62.746,203.2989-101.366,203.2989-36.757,0-101.3659-67.604-101.3659-203.2989c0,0,27.6895-3.5623,54.2459-18.2977c19.269-10.7681,47.444-37.2431,47.444-37.2431s26.799,21.3743,47.121,34.2475c23.803,14.9782,53.921,21.2933,53.921,21.2933Z" fill="#edf5ff"/><path d="M151.32,281.753c-20.564,0-46.149-20.079-65.1752-51.169-16.9214-27.528-37.0003-76.511-37.0003-152.9399c0-.4048.3239-.7287.7287-.8097.2429,0,27.8514-3.7243,53.9218-18.2167c18.945-10.5253,46.959-36.8384,47.282-37.0812.324-.2429.729-.3239,1.053-.081.243.2429,26.961,21.5362,47.04,34.1665c23.398,14.8163,53.435,21.1315,53.678,21.2124.405.081.648.4049.648.8097c0,76.7529-19.755,125.4929-36.352,152.8589-19.108,31.576-44.287,51.25-65.824,51.25ZM50.7638,78.3727C50.9257,154.073,70.8427,202.49,87.5212,229.774c18.7838,30.604,43.8008,50.359,63.7988,50.359c20.97,0,45.664-19.35,64.528-50.521c16.436-27.122,35.948-75.377,36.11-151.3202-4.534-1.0526-31.819-7.5296-53.598-21.2934-18.541-11.7397-42.749-30.7661-46.635-33.8427-3.886,3.6434-29.309,27.0418-47.04,36.8384-24.1267,13.4399-49.3873,17.65-53.9212,18.3786Z" fill="#1e120d"/><path d="M217.63,140.957L165.975,88.3312c-5.425-5.5865-14.411-5.5865-19.836,0L94.4034,141.038c-5.4246,5.587-5.4246,14.655,0,20.241l34.5716,35.219c4.534,4.615,10.687,7.206,17.083,7.206h19.917c6.396,0,12.549-2.591,17.083-7.206l34.572-35.219c5.505-5.667,5.505-14.735,0-20.322Z" fill="#5534b1"/><path d="M165.975,204.433h-19.917c-6.72,0-12.954-2.672-17.65-7.449L93.8367,161.765c-5.7484-5.91-5.7484-15.464,0-21.374L145.572,87.6835c2.834-2.8338,6.558-4.453,10.526-4.453c3.967,0,7.691,1.5383,10.525,4.453l51.735,52.7075c5.749,5.91,5.749,15.464,0,21.374l-34.571,35.219c-4.777,4.777-11.092,7.449-17.812,7.449ZM156.017,84.9307c-3.563,0-6.882,1.3764-9.311,3.9672L94.9702,141.605c-5.1817,5.263-5.1817,13.845,0,19.107l34.5718,35.219c4.453,4.534,10.282,6.963,16.516,6.963h19.917c6.234,0,12.145-2.51,16.517-6.963l34.571-35.219c5.182-5.262,5.182-13.844,0-19.107L165.327,88.8979c-2.429-2.5908-5.748-3.9672-9.31-3.9672Z" fill="#1e120d"/><path d="M129.703,156.098c-2.752,2.752-7.124,2.752-9.877,0-2.753-2.753-2.753-7.287,0-10.04l30.847-31.495c2.753-2.752,7.125-2.752,9.877,0c2.753,2.753,2.753,7.287,0,10.04l-30.847,31.495Z" fill="#fff" fill-rule="evenodd"/><path d="M124.764,159.012c-.081,0-.081,0,0,0-2.105,0-4.048-.809-5.505-2.348-2.996-3.076-2.996-8.096,0-11.173l30.847-31.494c1.457-1.539,3.4-2.348,5.505-2.348c2.106,0,4.049.809,5.506,2.348c2.996,3.076,2.996,8.096,0,11.173L130.27,156.664c-1.538,1.539-3.481,2.348-5.506,2.348Zm30.847-45.663c-1.619,0-3.157.648-4.372,1.862l-30.847,31.495c-2.428,2.429-2.428,6.477,0,8.906c1.134,1.214,2.672,1.862,4.372,1.862c1.62,0,3.158-.648,4.372-1.862l30.848-31.495c2.428-2.429,2.428-6.477,0-8.906-1.215-1.214-2.753-1.862-4.373-1.862Z" fill="#1e120d"/><path d="M160.874,187.916c-2.753,2.753-7.125,2.753-9.877,0-2.753-2.753-2.753-7.287,0-10.039c2.752-2.753,7.124-2.753,9.877,0c2.672,2.752,2.672,7.205,0,10.039Z" fill="#fff" fill-rule="evenodd"/><path d="M155.935,190.75c-2.105,0-4.048-.81-5.505-2.348-2.996-3.077-2.996-8.097,0-11.173c1.457-1.539,3.4-2.348,5.505-2.348s4.049.809,5.506,2.348c2.995,3.076,2.995,8.096,0,11.173-1.457,1.538-3.482,2.348-5.506,2.348Zm0-14.169c-1.619,0-3.157.648-4.372,1.862-2.429,2.429-2.429,6.477,0,8.906c1.134,1.215,2.753,1.862,4.372,1.862c1.62,0,3.158-.647,4.372-1.862c2.429-2.429,2.429-6.477,0-8.906-1.214-1.214-2.752-1.862-4.372-1.862Z" fill="#1e120d"/><path d="M160.955,156.017l-15.707,16.03c-2.753,2.753-7.125,2.753-9.877,0-2.753-2.752-2.753-7.286,0-10.039l15.707-16.031c2.752-2.753,7.124-2.753,9.877,0s2.753,7.287,0,10.04Z" fill="#fff" fill-rule="evenodd"/><path d="M140.309,174.881c-2.105,0-4.048-.81-5.505-2.348-2.996-3.077-2.996-8.096,0-11.173l15.707-16.031c1.457-1.538,3.4-2.348,5.505-2.348s4.048.81,5.506,2.348c2.995,3.077,2.995,8.097,0,11.173l-15.707,16.031c-1.457,1.538-3.401,2.348-5.506,2.348Zm15.707-30.199c-1.619,0-3.157.647-4.372,1.862l-15.707,16.031c-2.429,2.428-2.429,6.477,0,8.906c1.134,1.214,2.753,1.862,4.372,1.862c1.62,0,3.158-.648,4.372-1.862l15.707-16.031c2.429-2.429,2.429-6.477,0-8.906-1.214-1.215-2.752-1.862-4.372-1.862Z" fill="#1e120d"/><path d="M153.183,292.278h-13.036c-45.9867,0-112.5386-76.43-112.5386-214.7152v-9.8776l.6477-.0809c.3239-.081,35.381-5.5865,59.3461-18.9455C105.495,38.7003,132.537,14.0065,132.78,13.7636l6.639-6.31511h11.578v1.61926h-10.93l-6.154,5.91035c-.243.2429-27.446,25.0986-45.5011,35.1381C66.066,62.5036,34.2474,68.252,29.2277,69.0616v8.5821c0,137.1523,65.5803,213.0953,110.9193,213.0953h13.036v1.539Z" fill="#1e120d"/><path d="M171.885,296.731h-51.492c-.891,0-1.62-.729-1.62-1.62c0-.89.729-1.619,1.62-1.619h51.492c.891,0,1.62.729,1.62,1.619-.081.891-.81,1.62-1.62,1.62Z" fill="#f2f2f2"/><path d="M465.863,304.827c0,3.805,13.035,10.363-58.213,10.363-22.831,0-73.028-6.315-103.471-8.339-64.608-4.372-82.663-4.048-88.817-14.087-.404-.648,33.276-.486,104.524-.486c23.318,0,44.53,2.914,65.823,4.291c43.802,2.834,80.154,5.667,80.154,8.258Z" fill="#d9d9d9"/><path d="M171.885,293.573h-156.259c-.4857,0-.8096-.324-.8096-.81c0-.485.3239-.809.8096-.809h156.259c.486,0,.81.324.81.809c0,.486-.405.81-.81.81Z"/><path d="M310.494,293.573h-108.895c-.486,0-.81-.324-.81-.81c0-.485.324-.809.81-.809h108.895c.486,0,.81.324.81.809c0,.486-.324.81-.81.81Z"/><path d="M534.601,293.573h-196.984c-.486,0-.809-.324-.809-.81c0-.485.323-.809.809-.809h196.984c.486,0,.81.324.81.809c0,.486-.405.81-.81.81Z"/><path d="M116.83,262.159h-88.817c-1.7002,0-3.1575-1.376-3.1575-3.157v-39.51c0-1.701,1.3763-3.158,3.1575-3.158h88.898c1.7,0,3.157,1.376,3.157,3.158v39.591c-.081,1.7-1.457,3.076-3.238,3.076Z" fill="#fff"/><path d="M116.83,262.969h-88.8169c-2.186,0-3.9672-1.781-3.9672-3.967v-39.51c0-2.186,1.7812-3.968,3.9672-3.968h88.8979c2.186,0,3.967,1.782,3.967,3.968v39.591c-.081,2.186-1.862,3.886-4.048,3.886ZM28.0131,217.225c-1.2954,0-2.3479,1.052-2.3479,2.348v39.51c0,1.295,1.0525,2.348,2.3479,2.348h88.8979c1.295,0,2.348-1.053,2.348-2.348v-39.51c0-1.296-1.053-2.348-2.348-2.348h-88.8979Z" fill="#9e9e9e"/><path d="M108.086,230.422h-21.6982c-.4858,0-.8097-.324-.8097-.81s.3239-.81.8097-.81h21.6982c.486,0,.81.324.81.81s-.324.81-.81.81Z" fill="#9e9e9e"/><path d="M77.7246,230.422h-27.7704c-.4858,0-.8097-.324-.8097-.81s.3239-.81.8097-.81h27.7704c.4858,0,.8096.324.8096.81s-.3238.81-.8096.81Z" fill="#9e9e9e"/><path d="M105.414,240.137h-47.1205c-.4858,0-.8096-.324-.8096-.809c0-.486.3238-.81.8096-.81h47.1205c.486,0,.81.324.81.81c0,.485-.324.809-.81.809Z" fill="#9e9e9e"/><path d="M47.2013,240.137h-12.9542c-.4857,0-.8096-.324-.8096-.809c0-.486.3239-.81.8096-.81h12.9542c.4858,0,.8096.324.8096.81c0,.485-.3238.809-.8096.809Z" fill="#9e9e9e"/><path d="M111.405,249.853h-33.6803c-.4858,0-.8097-.324-.8097-.81s.3239-.809.8097-.809h33.6803c.486,0,.81.323.81.809s-.324.81-.81.81Z" fill="#9e9e9e"/><path d="M66.6325,249.853h-32.3854c-.4857,0-.8096-.324-.8096-.81s.3239-.809.8096-.809h32.3854c.4858,0,.8096.323.8096.809s-.3238.81-.8096.81Z" fill="#9e9e9e"/><path d="M42.2629,224.349001c-1.7002-.972-3.0771-.809001-3.0771-.809001s-1.7-.162998-3.4002.809002c-1.1335.648-1.5385,1.862998-1.5385,1.862998c0,5.748,4.9387,8.258,4.9387,8.258s4.9388-2.51,4.9388-8.258c.081,0-.7282-1.214999-1.8617-1.862999Z" fill="#edf5ff"/><path d="M389.191,103.957h-78.373c-1.7,0-3.157-1.376-3.157-3.158v-41.3719c0-1.7002,1.376-3.1576,3.157-3.1576h78.373c1.7,0,3.157,1.3764,3.157,3.1576v41.3719c0,1.782-1.376,3.158-3.157,3.158Z" fill="#fff"/><path d="M389.191,104.767h-78.373c-2.186,0-3.967-1.782-3.967-3.968v-41.3718c0-2.186,1.781-3.9672,3.967-3.9672h78.373c2.186,0,3.967,1.7812,3.967,3.9672v41.3718c0,2.186-1.781,3.968-3.967,3.968ZM310.818,57.1602c-1.295,0-2.348,1.0525-2.348,2.3479v41.3719c0,1.296,1.053,2.348,2.348,2.348h78.373c1.295,0,2.348-1.052,2.348-2.348v-41.4528c0-1.2954-1.053-2.348-2.348-2.348h-78.373v.081Z" fill="#757575"/><path d="M322.882001,60.998319c-1.7-.9716-3.077001-.680719-3.077001-.680719s-1.376-.290881-3.076.680719c-1.134.6477-1.863,1.991081-1.863,1.991081c0,5.7484,4.939,8.2583,4.939,8.2583s4.939-2.5099,4.939-8.2583c0,0-.728-1.343381-1.861999-1.991081Z" transform="translate(.081 0.060585)" fill="#edf5ff"/><path d="M381.823,67.4425h-19.269c-.486,0-.81-.3238-.81-.8096s.324-.8097.81-.8097h19.269c.486,0,.81.3239.81.8097s-.405.8096-.81.8096Z" fill="#757575"/><path d="M354.782,67.4425h-23.966c-.485,0-.809-.3238-.809-.8096s.324-.8097.809-.8097h23.966c.485,0,.809.3239.809.8097s-.405.8096-.809.8096Z" fill="#757575"/><path d="M348.709,76.1056h-32.628c-.486,0-.81-.3239-.81-.8096c0-.4858.324-.8097.81-.8097h32.628c.486,0,.81.3239.81.8097c0,.4857-.324.8096-.81.8096Z" fill="#757575"/><path d="M374.051,84.7687h-32.548c-.485,0-.809-.3239-.809-.8097s.324-.8096.809-.8096h32.548c.486,0,.809.3239.809.8096s-.404.8097-.809.8097Z" fill="#757575"/><path d="M335.431,84.7687h-19.35c-.486,0-.81-.3239-.81-.8097s.324-.8096.81-.8096h19.35c.486,0,.81.3239.81.8096s-.324.8097-.81.8097Z" fill="#757575"/><path d="M381.823,93.6747h-19.269c-.486,0-.81-.3239-.81-.8096s.324-.8097.81-.8097h19.269c.486,0,.81.3239.81.8097s-.405.8096-.81.8096Z" fill="#757575"/><path d="M354.782,93.6747h-38.62c-.486,0-.809-.3239-.809-.8096s.323-.8097.809-.8097h38.62c.485,0,.809.3239.809.8097s-.404.8096-.809.8096Z" fill="#757575"/><path d="M368.302,76.1056h-13.521c-.485,0-.809-.3239-.809-.8096c0-.4858.324-.8097.809-.8097h13.521c.486,0,.81.3239.81.8097c0,.4857-.405.8096-.81.8096Z" fill="#757575"/><path d="M381.823,76.1056h-8.42c-.486,0-.81-.3239-.81-.8096c0-.4858.324-.8097.81-.8097h8.42c.486,0,.81.3239.81.8097c0,.4857-.405.8096-.81.8096Z" fill="#757575"/><path d="M316.729,37.0812h-67.2c-1.7,0-3.157-1.3764-3.157-3.1576v-29.95646c0-1.70023,1.376-3.15757,3.157-3.15757h67.2c1.7,0,3.157,1.37638,3.157,3.15757v30.03746c-.081,1.7002-1.457,3.0766-3.157,3.0766Z" fill="#fff"/><path d="M316.729,37.8909h-67.2c-2.186,0-3.967-1.7812-3.967-3.9672v-29.95649C245.562,1.78119,247.343,0,249.529,0h67.2c2.186,0,3.967,1.78119,3.967,3.96721v30.03739c-.081,2.1051-1.781,3.8863-3.967,3.8863Zm-67.2-36.27163c-1.295,0-2.348,1.05252-2.348,2.34794v30.03739c0,1.2954,1.053,2.348,2.348,2.348h67.2c1.295,0,2.348-1.0526,2.348-2.348v-30.03739c0-1.29542-1.053-2.34794-2.348-2.34794h-67.2Z" fill="#9e9e9e"/><path d="M312.519,12.0636h-17.245c-.486,0-.81-.3239-.81-.8096s.324-.8097.81-.8097h17.245c.485,0,.809.3239.809.8097s-.404.8096-.809.8096Z" fill="#9e9e9e"/><path d="M288.392,12.0636h-20.727c-.486,0-.81-.3239-.81-.8096s.324-.8097.81-.8097h20.727c.486,0,.809.3239.809.8097s-.323.8096-.809.8096Z" fill="#9e9e9e"/><path d="M308.39,19.755h-35.462c-.486,0-.81-.3238-.81-.8096s.324-.8097.81-.8097h35.462c.486,0,.809.3239.809.8097s-.323.8096-.809.8096Z" fill="#9e9e9e"/><path d="M264.184,19.755h-10.283c-.485,0-.809-.3238-.809-.8096s.324-.8097.809-.8097h10.283c.486,0,.809.3239.809.8097s-.404.8096-.809.8096Z" fill="#9e9e9e"/><path d="M305.718,27.4467h-18.703c-.486,0-.809-.3239-.809-.8097s.323-.8096.809-.8096h18.703c.486,0,.809.3238.809.8096s-.323.8097-.809.8097Z" fill="#9e9e9e"/><path d="M279.567,27.4467h-25.666c-.485,0-.809-.3239-.809-.8097s.324-.8096.809-.8096h25.666c.486,0,.809.3238.809.8096s-.323.8097-.809.8097Z" fill="#9e9e9e"/><path d="M261.019654,4.849923c-1.7-.97156-2.908654-.639963-2.908654-.639963s-1.213999-.331597-2.914.639963c-1.133999.64771-2.025,2.031827-2.025,2.031827c0,5.74845,4.939,8.25825,4.939,8.25825s4.939-2.5098,4.939-8.25825c0,.08097-.896346-1.384117-2.030346-2.031827Z" fill="#edf5ff"/><path d="M286.691,99.6657c.162-10.1204-8.501-18.2977-18.783-17.7309-8.744.4857-15.869,7.4486-16.598,16.1926c0,.2429,0,.4858-.081.7287-.243,4.6959-2.348,8.9869-5.667,12.3069-3.32,3.319-8.178,6.234-7.692,15.14.729,12.063,9.068,16.678,18.136,17.164c10.363.729,30.037-1.053,30.685-43.8013Z" fill="#333"/><path d="M252.12,135.29c13.035,2.024,22.346,12.954,26.394,25.26c3.886,11.821,8.663,38.944,8.663,38.944l54.408,8.258-15.869,15.707-44.044-4.534c-5.587-.729-10.445-4.129-13.116-9.149-8.583-16.355-25.342-47.202-23.561-63.88.648-5.587,2.51-11.335,7.125-10.606Z" fill="#fff"/><path d="M250.501,149.539c13.035,2.024,19.107,9.959,22.265,22.508c2.833,11.092,4.858,25.584,5.91,34.571.567,4.615,4.534,8.097,9.23,8.016l36.514,3.886-1.052,5.748-41.615-5.424c-5.587-.729-10.445-4.129-13.116-9.149-8.583-16.355-25.342-47.202-23.561-63.88.567-5.506.81,2.995,5.425,3.724Z" fill="#d9d9d9"/><path d="M292.278,220.787c-.324,0-.648-.243-.81-.567-1.862-6.801-.081-11.739,1.781-14.573c2.024-3.158,4.453-4.696,4.615-4.696.405-.243.891-.081,1.134.243.243.405.081.89-.243,1.133-.405.243-8.987,5.668-5.668,17.488.081.405-.162.891-.566.972-.162,0-.243,0-.243,0Z" fill="#5534b1"/><path d="M325.149,224.997h-.081l-37.648-4.858c-1.619,0-7.125-.728-8.501-1.133-4.777-1.377-8.825-4.615-11.092-9.068l-1.295-2.51c-8.987-17.083-24.128-45.744-22.346-61.856.405-3.562,1.376-8.177,4.048-10.282c1.133-.891,2.429-1.215,3.967-.972c12.145,1.862,21.455,10.525,25.989,24.37c3.563,10.849,8.825,35.867,9.635,39.834l49.226,8.42c.243.081.485.243.647.486.081.243.081.567-.081.81l-11.82,16.273c-.081.405-.324.486-.648.486Zm-37.648-6.477h.081l37.162,4.777l10.768-14.816-48.497-8.259c-.324-.081-.566-.324-.647-.647-.081-.324-5.911-28.581-9.716-40.239-4.372-13.278-13.197-21.537-24.694-23.318-1.052-.162-1.943.081-2.753.648-1.7,1.295-2.914,4.615-3.481,9.149-1.7,15.626,13.278,43.963,22.184,60.884l1.295,2.51c2.105,3.967,5.749,6.963,10.121,8.258c1.376.405,6.963,1.134,8.177,1.053Z" fill="#333"/><path d="M366.602,207.428l-58.698,15.869l15.626-47.121c1.214-3.4,3.886-4.129,6.315-4.615l55.703-12.306c1.943-.405,3.076.648,2.752,3.158-.242,1.781-.971,3.967-2.833,8.258L370.408,204.19c-.729,1.619-2.106,2.833-3.806,3.238Z" fill="#fff"/><path d="M317.377,208.966c2.914-8.906,6.558-20.159,9.796-30.442.486-1.538,1.296-3.481,4.129-4.21l57.565-12.792c0,0-.243-2.753-2.51-2.348-7.853,1.538-37.81,8.42-53.112,11.74-8.582,1.862-8.177,2.833-8.744,3.562-1.376,1.7-16.597,48.902-16.597,48.902l58.698-15.869c1.7-.486,3.077-1.619,3.806-3.238l.971-2.106c-11.092,3.401-37,9.149-37,9.149.89-4.048-3.482-4.372-7.611-3.481-2.752.648-7.529.567-9.391,1.133Z" fill="#d9d9d9"/><path d="M357.592,192.522c.949-2.605.457-5.176-1.097-5.742-1.555-.566-3.584,1.087-4.533,3.692-.948,2.606-.457,5.176,1.098,5.742s3.584-1.087,4.532-3.692Z" fill="#fff"/><path d="M353.729,197.146c-.324,0-.648-.081-.891-.162-2.024-.729-2.672-3.725-1.538-6.801c1.133-3.077,3.562-4.939,5.586-4.21c2.024.728,2.672,3.724,1.539,6.801-.486,1.376-1.296,2.59-2.267,3.4-.891.648-1.701.972-2.429.972Zm2.186-9.716c-.972,0-2.348,1.215-3.158,3.32-.89,2.347-.405,4.372.567,4.695.486.162,1.053,0,1.7-.566.729-.648,1.377-1.62,1.781-2.753.891-2.348.405-4.372-.566-4.696-.081,0-.243,0-.324,0Z" transform="matrix(.966931 0 0 0.979112 11.734936 3.999646)" fill="#333"/><path d="M314.219,219.33c-.081,0-.162,0-.243-.081-.405-.162-.648-.567-.486-1.053l3.724-11.173c.162-.405.567-.647,1.053-.485.405.161.648.566.486,1.052l-3.725,11.173c-.161.324-.485.567-.809.567Z" fill="#333"/><path d="M307.985,224.188c-.243,0-.405-.081-.567-.243-.243-.243-.243-.567-.162-.81l15.626-47.121c1.376-3.805,4.129-4.615,6.882-5.1l55.622-12.307c1.376-.243,2.509,0,3.238.729.486.486,1.134,1.457.891,3.157-.243,1.701-1.134,3.806-2.753,7.287l-.567,1.296-15.059,33.518c-.81,1.782-2.429,3.158-4.291,3.644l-58.698,15.869c0,.081-.081.081-.162.081Zm78.453-64.123c-.243,0-.405,0-.648.081l-55.702,12.306c-2.51.486-4.615,1.133-5.749,4.048l-15.14,45.663l57.241-15.545c1.458-.404,2.672-1.376,3.239-2.752l15.626-34.815c1.457-3.4,2.348-5.424,2.59-6.881.081-.567.081-1.296-.404-1.782-.162-.242-.567-.323-1.053-.323Z" fill="#333"/><path d="M321.182,198.441c-.081,0-.162,0-.243,0-.405-.162-.648-.567-.567-1.052l5.91-18.784c.162-.405.567-.648,1.053-.567.405.162.648.567.567,1.053l-5.911,18.783c-.081.324-.405.567-.809.567Z" fill="#333"/><path d="M255.439,96.1035c.162-10.1204-8.501-18.2977-18.783-17.731-8.744.4858-16.274,17.3262-16.274,17.5691-.243,4.6954-2.024,8.5824-5.991,11.6584-3.724,2.834-9.716,5.911-9.716,15.869c0,12.064,11.092,15.95,20.16,16.517c10.283.647,30.038-1.134,30.604-43.8825Z" fill="#333"/><path d="M216.253,265.803l61.775-33.114-8.177-43.64c.567-4.372,5.668-4.938,2.915-17.002-.81-3.643-3.401-7.287-4.615-10.768-4.615-13.278-9.959-23.965-15.788-25.423l-20.322-5.586c-27.932,2.834-39.267,17.65-34.49,49.469l7.125,37.89l11.577,48.174Z" fill="#fff"/><polygon points="261.593,189.13 270.337,196.336 270.256,187.268" fill="#f2f2f2"/><path d="M226.779,230.098c-5.83-9.716-12.712-22.589-18.46-35.786l-.324.081c0,0,14.412,33.681,19.188,41.534.567.891,1.134,1.943,1.782,3.077c3.319,5.991,10.93,8.258,17.002,5.02l17.812-7.773-.324-.567-16.84,4.615c-.162.162-13.035,1.296-19.836-10.201Z" fill="#d9d9d9"/><path d="M241.271,122.74l-3.887-11.577-1.943-1.134c0,0-1.295,13.197-3.319,17.083-.891,1.701-5.425,5.425-5.425,5.425s5.344,9.715,15.869,14.573c2.996,1.377,15.95,2.591,9.797-9.23l1.133-5.1c-.648-.081-1.376-.162-2.024-.324-5.505-1.134-8.987-6.963-10.201-9.716Z" fill="#fff"/><path d="M251.553,135.452c0-.486.324-1.296,1.538-2.348l2.753-11.173-15.221-8.825c0,0-1.7,7.691-.405,11.82c2.429,7.692,6.963,9.554,10.768,10.93.324.081.567-.081.567-.404Z" fill="#d9d9d9"/><path d="M268.555,89.0596c-13.44,18.7024-29.632,11.7394-29.632,11.7394l-4.372-.647c-2.024,1.052-3.563,3.076-3.887,5.586-.485,3.967,2.186,7.53,5.992,8.015l1.7.324l2.915,8.663c1.214,2.753,4.776,8.582,10.12,9.716.729.162,1.376.243,2.024.324c11.092,1.295,17.488-6.153,22.832-19.593c1.538-3.806,3.724-11.416,4.777-15.1405-.081,0-.081,0-.162,0-3.401-.5667-12.307-8.9869-12.307-8.9869Z" fill="#fff"/><path d="M256.411,133.913c-1.7,0-3.482-.243-5.263-.728-5.829-1.539-10.768-7.935-11.658-12.954-.081-.405.242-.891.647-.972.486-.081.891.243.972.648.809,4.534,5.262,10.282,10.525,11.658c9.797,2.672,17.731-2.671,22.265-14.978c2.105-5.748,7.853-21.4551,8.096-22.2648.081-.4048.486-.6477.891-.5667s.729.4858.648.8906-8.097,22.2649-8.097,22.5079c-4.129,11.011-10.687,16.759-19.026,16.759Z" fill="#333"/><path d="M236.656,114.563h-.081c-2.024-.243-3.886-1.295-5.101-2.996-1.214-1.7-1.781-3.805-1.538-5.91s1.295-4.048,2.915-5.343c1.619-1.2959,3.643-1.9436,5.748-1.7007.405.081.729.4858.729.8906-.081.4048-.486.7291-.891.7291-1.619-.2433-3.238.242-4.534,1.295-1.295,1.053-2.105,2.591-2.348,4.291s.243,3.401,1.215,4.696c.971,1.376,2.429,2.186,4.048,2.429.405.081.729.486.729.89-.162.405-.486.729-.891.729Z" fill="#333"/><path d="M282.481,75.9436c-8.663-3.3195-17.164-9.1489-31.171-9.8776-28.094-1.4573-31.009,23.6413-31.009,31.8186l14.25,2.1864l4.372.647c0,0,16.193,6.963,29.632-11.7393c0,0,8.906,8.4202,12.307,8.9059.081,0,.081,0,.162,0c4.777.5668,8.177-1.7002,10.039-4.1291c3.886-5.0197,3.482-13.197-8.582-17.8119Z" fill="#333"/><path d="M266.531,120.959c-.081,0-.162,0-.243,0l-3.886-1.214c-.405-.162-.648-.567-.567-1.053.162-.405.567-.647.972-.567l2.915.891.566-5.343c.081-.405.486-.729.891-.729.405.081.729.486.729.89l-.729,6.316c0,.242-.162.485-.324.566c0,.162-.162.243-.324.243Z" fill="#333"/><path d="M383.847,218.52c-3.724-5.748-10.444-12.145-17.245-11.011c0,0-102.985,35.219-105.819,36.11-45.663,14.492-32.871,53.597-17.731,53.597c0,0,29.066,3.158,56.998-13.278c25.666-15.059,62.504-33.68,62.504-33.68l46.878,35.866c0,0,9.391-2.348,11.011178-6.072.080822-.081-27.447178-47.283-36.596178-61.532Z" fill="#fff"/><path d="M402.469,284.262l7.772,11.011c0,0,17.812,1.862,20.16-2.186l-12.306-15.383-15.626,6.558Z" fill="#fff"/><path d="M402.469,284.262l6.234,10.202c0,0,5.424.566,8.339,0l-7.61-9.554-6.963-.648Z" fill="#d9d9d9"/><path d="M408.217,294.787v10.93c0,2.267,1.781,4.049,4.048,4.049h48.417c3.886,0,6.558-4.291,4.453-7.611-.405-.729-1.053-1.295-1.782-1.457-3.643-.972-31.09-11.497-31.09-11.497s-2.429,3.805-13.197,5.02c-2.348.162-10.849.566-10.849.566Z" fill="#fff"/><path d="M408.217,294.787v10.93c0,2.267,1.781,4.049,4.048,4.049l9.635-.081v-16.031c-6.558,1.457-13.845.971-13.683,1.133Z" fill="#d9d9d9"/><path d="M409.836,295.354c-.242,0-.485-.162-.647-.324l-4.453-6.639c-.243-.405-.162-.89.243-1.133.404-.243.89-.162,1.133.243l4.453,6.639c.243.404.162.89-.243,1.133-.162,0-.324.081-.486.081Z" fill="#333"/><path d="M427.325,291.144c-.243,0-.486-.081-.648-.324l-7.044-8.744c-.243-.324-.243-.89.162-1.133.324-.243.891-.243,1.133.162l7.044,8.744c.243.323.243.89-.162,1.133-.162.081-.324.162-.485.162Z" fill="#333"/><path d="M427.568,293.897c0,0-1.943-2.267-2.51-3.077-1.296-1.7-1.781-3.157,0-4.291.809-.486,2.753-.971,3.967-1.214.729-.162,1.457.081,1.943.485l4.939,6.316" fill="#fff"/><path d="M427.567,294.706c-.243,0-.486-.081-.647-.323-.081-.081-1.944-2.267-2.51-3.077-.729-1.053-1.539-2.267-1.296-3.482.162-.809.648-1.457,1.539-1.943.728-.404,2.105-.89,4.21-1.295.971-.162,1.943.081,2.671.729l4.939,4.776c.324.324.324.81,0,1.134s-.809.324-1.133,0l-4.939-4.696c-.324-.324-.81-.405-1.214-.324-1.863.405-3.158.81-3.725,1.134-.728.404-.728.809-.809.89-.081.648.485,1.539.971,2.186.567.729,2.429,2.996,2.429,2.996.324.324.243.891-.081,1.133-.081.081-.243.162-.405.162Z" fill="#333"/><path d="M458.171,305.151h-49.064c-.485,0-.809-.324-.809-.81s.324-.81.809-.81h49.064c.486,0,.81.324.81.81s-.324.81-.81.81Z" fill="#333"/><path d="M374.537,227.669c-3.725-5.749-12.955-18.055-19.755-17.003c0,0-83.717,24.856-86.55,25.747-12.874,4.048-23.48,13.926-27.447,20.726-10.282,17.327-2.51,39.996,8.339,39.996c0,0,22.913,3.158,50.926-13.278c25.666-15.059,62.504-33.68,62.504-33.68l42.02,37.971c0,0,6.801-1.619,9.71616-3.724.08084,0-30.60516-42.425-39.75316-56.755Z" fill="#d9d9d9"/><path d="M253.901,298.188c-2.753,0-4.453-.162-4.777-.243-6.477-.081-12.387-7.853-13.763-18.136-2.267-16.435,6.72-37.162,38.781-46.068c2.834-.81,91.408-26.799,92.298-27.042h.081c7.125-1.133,14.169,5.425,18.055,11.416c9.068,14.169,36.434,61.047,36.676,61.532.162.243.162.486.081.729-1.7,3.967-14.978,8.096-16.435,8.582-.243.081-.567,0-.81-.162l-41.615-37.567c-4.453,2.267-38.215,19.512-62.018,33.438-20.403,11.902-38.296,13.521-46.554,13.521Zm112.944-89.95c-2.51.728-89.464,26.313-92.217,27.041-31.009,8.664-39.753,28.58-37.648,44.287c1.295,9.392,6.639,16.76,12.225,16.76h.081c.243,0,22.994,2.914,50.359-13.197c25.423-14.897,62.18-33.519,62.585-33.762.324-.162.648-.081.891.081l41.696,37.648c5.182-1.619,13.197-4.858,14.816-7.206-2.672-4.615-27.851-47.687-36.433-61.127-3.563-5.425-10.04-11.497-16.355-10.525Z" fill="#333"/><path d="M460.277,310.494h-47.526c-2.671,0-4.857-2.186-4.857-4.857v-10.93c0-.405.323-.81.809-.81.081,0,7.53-.324,9.878-.648c3.886-.486,5.748-.728,6.639-.971.081-.405.405-.648.89-.567c1.053.081,1.296.567,1.296.971c0,.81,0,1.215-8.582,2.186-1.944.243-7.287.486-9.23.567v10.202c0,1.781,1.457,3.238,3.238,3.238h47.526c1.7,0,3.4-.971,4.291-2.51.729-1.295.729-2.672,0-3.805-.324-.486-1.215-1.053-1.781-1.214-3.644-.972-26.151-9.635-27.042-10.04-.405-.162-.648-.648-.486-1.052.162-.405.648-.648,1.053-.486.243.081,23.398,8.987,26.96,9.958.891.243,2.186.972,2.753,1.943c1.053,1.701,1.053,3.644,0,5.425-1.295,2.024-3.562,3.4-5.829,3.4Z" fill="#333"/><path d="M392.187,293.087l4.372,8.825c0,0,18.216,1.053,20.564-2.995l-9.553-11.578-15.383,5.748Z" fill="#fff"/><path d="M395.425,300.212v10.93c0,2.267,1.781,4.048,4.048,4.048h48.416c3.886,0,6.558-4.291,4.453-7.61-.405-.729-1.052-1.296-1.781-1.458-3.643-.971-31.09-11.497-31.09-11.497s-2.429,3.806-13.197,5.02c-2.429.162-10.849.567-10.849.567Z" fill="#fff"/><path d="M447.889,316h-48.416c-2.672,0-4.858-2.186-4.858-4.858v-10.93c0-.405.324-.81.81-.81.081,0,8.501-.323,10.849-.647c10.12-1.215,12.63-4.615,12.63-4.696.243-.324.648-.486.972-.324.243.081,27.446,10.525,31.009,11.497.89.243,1.7.89,2.267,1.862c1.052,1.781,1.133,3.886.081,5.748-1.215,1.943-3.158,3.158-5.344,3.158Zm-51.654-15.059v10.12c0,1.781,1.457,3.239,3.238,3.239h48.416c1.619,0,3.077-.891,3.805-2.267.729-1.296.729-2.834-.081-4.13-.404-.647-.809-.971-1.295-1.133-3.4-.972-26.637-9.878-30.604-11.335-1.134,1.134-4.615,3.886-13.359,4.858-2.024.324-8.015.567-10.12.648Z" fill="#333"/><path d="M395.992,300.86c-.243,0-.567-.162-.729-.405l-3.805-6.396c-.243-.405-.081-.891.243-1.134.404-.243.89-.081,1.133.243l3.805,6.396c.243.405.081.891-.242,1.134-.081.081-.243.162-.405.162Z" fill="#333"/><path d="M414.937,296.65c-.243,0-.485-.081-.647-.324l-7.044-8.744c-.243-.324-.243-.891.162-1.134.324-.243.89-.243,1.133.162l7.044,8.744c.243.324.243.891-.162,1.134-.162.081-.324.162-.486.162Z" fill="#333"/><path d="M415.18,299.402c0,0-1.943-2.267-2.51-3.076-1.295-1.7-1.781-3.158,0-4.291.81-.486,2.753-.972,3.967-1.215.729-.162,1.458.081,1.943.486l4.939,6.315" fill="#fff"/><path d="M415.18,300.212c-.243,0-.486-.081-.648-.324-.081-.081-1.943-2.267-2.51-3.076-.728-1.053-1.538-2.267-1.295-3.482.162-.81.648-1.457,1.538-1.943.729-.405,2.105-.891,4.21-1.295.972-.162,1.944.081,2.672.728l4.939,4.777c.324.324.324.81,0,1.134-.324.323-.81.323-1.133,0l-4.939-4.696c-.324-.324-.81-.405-1.215-.324-1.862.405-3.157.809-3.724,1.133-.729.405-.729.81-.81.891-.081.648.486,1.538.972,2.186.567.729,2.429,2.996,2.429,2.996.324.323.243.89-.081,1.133-.081.081-.243.162-.405.162Z" fill="#333"/><path d="M445.784,310.656h-47.849c-.486,0-.81-.323-.81-.809s.324-.81.81-.81h47.849c.486,0,.81.324.81.81s-.324.809-.81.809Z" fill="#333"/><path d="M270.094,233.741c33.924-9.472,75.62-20.645,75.62-20.645c6.801-1.134,13.602,1.619,17.731,7.124l46.068,65.905c-9.554,5.505-19.108,7.367-19.108,7.367s-.566-.648-30.928-21.86c-17.164-11.982-21.698-21.455-21.698-21.455l-61.937,37.729c-9.958,6.072-21.374,9.311-33.114,9.311-15.059,0-28.094-13.926-27.365-31.414c0,0,19.755-15.545,26.96-19.755c6.558-3.806,27.771-12.307,27.771-12.307Z" fill="#fff"/><path d="M262.241,279c34.571-6.72,75.377-38.539,75.377-38.539c6.801-1.134,15.707,13.602,26.394,21.212l33.923,29.309c-4.129,1.7-7.61,2.591-7.61,2.591s-.567-.648-30.928-21.86c-17.164-11.983-21.698-21.455-21.698-21.455l-61.937,37.728c-9.959,6.073-21.375,9.311-33.114,9.311-15.059,0-28.095-13.925-27.366-31.414c0,0,2.591-4.21,9.797-8.42.081-.081-3.725,29.552,37.162,21.537Z" fill="#f2f2f2"/><path d="M242.647,298.026c-7.286,0-14.168-3.077-19.512-8.663-5.91-6.153-9.068-14.816-8.663-23.641c0-.486.405-.81.81-.81.486,0,.809.405.809.81-.404,8.42,2.591,16.597,8.178,22.426c5.019,5.263,11.497,8.178,18.297,8.178c11.497,0,22.832-3.158,32.629-9.149l61.937-37.729c.162-.081.404-.162.647-.081s.405.243.486.405c.081.081,4.696,9.392,21.455,21.131c17.327,12.064,28.419,19.917,30.686,21.618c1.781-.405,9.715-2.348,17.731-6.801l-45.583-65.176c-3.967-5.263-10.444-7.853-17.002-6.801-.243.081-27.204,6.639-54.65,14.412-9.797,2.833-18.703,5.748-26.475,8.744-.405.162-.891-.081-1.053-.486s.081-.891.486-1.053c7.772-2.995,16.678-5.991,26.556-8.825c27.446-7.853,54.488-14.411,54.731-14.492c7.125-1.134,14.25,1.7,18.622,7.449l46.068,65.904c.162.162.162.405.162.647-.081.243-.162.405-.405.486-9.554,5.506-18.946,7.368-19.35,7.449-.243.081-.486,0-.729-.162s-2.672-2.105-30.928-21.779c-14.573-10.202-20.079-18.46-21.617-20.97L275.761,288.31c-9.715,6.477-21.293,9.716-33.114,9.716Z" fill="#333"/><path d="M337.698,250.986c-.324,0-.566-.162-.728-.405-.243-.404-.081-.89.323-1.133l5.182-2.834c.405-.243.891-.081,1.134.324.242.405.081.891-.324,1.133l-5.182,2.834c-.162.081-.243.081-.405.081Z" fill="#333"/><path d="M215.282,266.612c-.081,0-.162,0-.243,0-.243-.081-.486-.324-.567-.648-1.7-8.339-4.129-19.107-6.315-28.58-1.134-4.938-2.105-9.391-2.834-12.711l-.243-.971c-6.234-28.419-7.853-36.029-8.825-48.336-1.943-25.26,5.587-32.709,12.793-37.728c10.039-6.963,19.107-7.368,19.512-7.368.404-.081.809.324.809.81c0,.485-.324.809-.809.809-.081,0-9.068.405-18.622,7.125-6.882,4.777-14.007,11.902-12.063,36.272.971,12.144,2.59,19.755,8.825,48.092l.242.971c.729,3.32,1.701,7.773,2.834,12.712c2.024,8.986,4.291,19.026,5.991,27.203c4.211-3.886,20.727-18.136,41.211-25.908c10.768-4.129,17.65-6.477,19.755-7.206-4.453-17.812-8.016-42.829-7.287-44.206c5.425-9.068,2.186-15.788-.567-21.698-1.133-2.429-2.267-4.777-2.59-7.044-.081-.405.242-.809.728-.89s.81.243.891.728c.243,1.943,1.295,4.21,2.429,6.558c2.833,5.992,6.315,13.359.567,23.075-.081,2.105,2.671,24.694,7.529,43.801.081.405-.162.81-.567.972-.081,0-7.367,2.429-20.402,7.448-23.48,8.906-41.616,26.394-41.778,26.556c0,.081-.161.162-.404.162Z" fill="#333"/><path d="M247.424,148.487c-5.829,0-11.335-2.753-15.869-8.016-3.562-4.129-5.262-8.177-5.343-8.339-.081-.243-.081-.486.081-.728.162-.243.324-.405.567-.405c0,0,2.752-.567,5.181-6.073c2.591-6.153,1.7-11.577,1.7-11.658-.08-.405.243-.891.648-.972s.891.243.972.648c.081.243,1.052,5.991-1.781,12.549-1.944,4.453-4.13,6.153-5.425,6.72c1.538,3.158,8.177,15.059,19.998,14.655c1.943-.081,3.4-.891,4.129-2.267.972-1.782.567-4.372-1.133-6.963-.243-.405-.162-.891.242-1.134.405-.243.891-.162,1.134.243c1.943,2.996,2.429,6.234,1.214,8.582-.971,1.943-2.995,3.077-5.505,3.158-.324,0-.567,0-.81,0Z" fill="#333"/><path d="M258.597,143.305c-.405,0-.729-.324-.809-.729-.243-1.862-1.134-4.048-2.591-6.315-.243-.405-.162-.891.243-1.133.404-.243.89-.162,1.133.242c1.619,2.429,2.51,4.777,2.834,6.963.081.405-.243.891-.729.891c0,.081-.081.081-.081.081Z" fill="#333"/><path d="M246.776,153.425c-9.23,0-15.545-5.424-19.431-10.444-.243-.324-.243-.89.162-1.133.324-.243.89-.243,1.133.162c4.13,5.343,11.335,11.253,22.103,9.391c1.701-.324,4.291-1.376,5.83-3.562.243-.324.728-.486,1.133-.162.324.243.405.729.162,1.134-1.781,2.509-4.858,3.805-6.882,4.21-1.457.242-2.914.404-4.21.404Z" fill="#333"/><path d="M250.501,143.305c0,0-.081,0,0,0-.486,0-.81-.405-.81-.891c0-.243.405-5.586,2.753-9.715.243-.405.728-.567,1.133-.324s.567.729.324,1.133c-2.186,3.887-2.51,8.987-2.51,9.068-.162.405-.486.729-.89.729Z" fill="#333"/><path d="M295.84,221.273c-.405,0-.81-.324-.81-.729-1.052-17.407,8.583-18.702,8.987-18.783.405-.081.81.243.891.728.081.405-.243.81-.729.891-.323.081-8.501,1.295-7.529,17.083c0,.405-.324.729-.81.81Z" fill="#333"/><path d="M270.175,117.478c.89.324,1.781-.162,2.105-.972l.89-2.51c.324-.89-.162-1.781-.971-2.105-.891-.324-1.782.162-2.105.972l-.891,2.51c-.324.809.162,1.781.972,2.105Z" fill="#333"/><path d="M261.026,113.591c.809.405,1.781,0,2.186-.809l1.133-2.429c.405-.81,0-1.781-.81-2.186-.809-.405-1.781,0-2.186.81l-1.133,2.428c-.405.891,0,1.863.81,2.186Z" fill="#333"/><path d="M275.518,108.896c-.323,0-.647-.162-.728-.486-.486-1.134-1.943-.729-2.024-.648-.405.162-.891-.081-.972-.567-.162-.404.081-.89.567-.971c1.052-.324,3.238-.405,3.967,1.619.162.405,0,.891-.486,1.053-.162,0-.243,0-.324,0Z" fill="#333"/><path d="M266.855,105.414c-.243,0-.567-.162-.729-.405-1.133-1.862-2.509-1.295-2.752-1.214-.405.162-.891.081-1.053-.324-.243-.405-.081-.891.324-1.052.972-.567,3.32-.891,4.939,1.781.243.405.081.89-.243,1.133-.243,0-.405.081-.486.081Z" fill="#333"/><path d="M258.273,123.145c-4.534,0-7.287-3.886-8.177-6.315-.162-.405.081-.891.485-1.052.405-.162.891.08,1.053.485.081.243,2.591,6.558,8.42,5.02.405-.081.891.162.972.567s-.162.89-.567.971c-.729.243-1.457.324-2.186.324Z" fill="#333"/><path d="M332.516,213.014c0,0,1.134-2.347-1.133-3.157-.243-.081-6.477.81-11.74.971-3.967.081-7.529-.566-7.529-.566l1.052-3.725c-3.886.405-12.873,7.773-12.873,7.773l-49.469-.486h-1.781l-3.238-8.663-11.254-30.28c-3.239-13.035-3.563-25.261-12.064-28.904-20.16-8.501-25.18,18.783-20.079,33.357c1.7,4.938,3.724,9.958,5.91,14.978c5.749,13.197,12.631,26.07,18.46,35.786c6.882,11.416,19.755,10.282,19.755,10.282l16.841-4.615l32.547-8.987l33.923-9.149c0,0,4.858-1.133,5.992-2.509.647-.729-.567-2.267-3.32-2.106Z" fill="#fff"/><path d="M259.649,237.627c-.243,0-.567-.162-.729-.405-6.234-10.93-.971-22.669-.809-23.155.162-.405.647-.567,1.052-.405s.567.648.405,1.053c-.081.081-5.101,11.496.729,21.698.243.405.081.89-.324,1.133-.081.081-.243.081-.324.081Z" fill="#5534b1"/><path d="M292.278,215.201c-.648,0-1.215,0-1.701,0-.485,0-.89,0-1.133,0l-40.887-.486c-.323,0-.647-.243-.728-.486-.567-1.538-14.088-37.162-16.517-50.116-.081-.405.243-.891.648-.972s.891.243.972.648c2.186,11.982,14.573,44.854,16.273,49.307l40.32.485c.243,0,.648,0,1.133,0c2.025,0,5.911,0,8.016-.162.648-.081,1.214-.242,1.7-.566c6.072-4.049,10.444-6.396,13.035-7.044.405-.081.891.162.972.567.081.404-.162.89-.567.971-1.7.405-5.263,1.943-12.549,6.801-.729.486-1.62.81-2.51.891-1.7.081-4.372.162-6.477.162Z" fill="#333"/><path d="M330.33,214.634c-.323,0-.728-.243-.809-.648s.162-.89.566-.971c.81-.162,1.782-.567,1.701-1.296c0-.162-.081-.324-.162-.405-.324-.243-.972-.405-1.619-.324-.081,0-.243,0-.567.081-9.068,1.134-14.817,1.377-17.245.567-.405-.162-.648-.567-.567-1.052.162-.405.567-.648,1.052-.567c1.539.486,5.587.729,16.598-.648.324,0,.486-.081.567-.081c1.214-.162,2.267.162,2.914.729.486.405.729.971.729,1.619c0,.81-.405,2.267-2.996,2.915c0,.081-.081.081-.162.081Z" fill="#333"/><path d="M244.995,241.271c-.648,0-1.215,0-1.782-.081-9.553-.972-15.464-8.177-18.702-14.088-8.582-15.626-19.026-36.352-22.751-47.444-.162-.405.081-.891.486-1.053s.891.081,1.053.486c3.643,10.93,14.087,31.576,22.669,47.121c3.077,5.586,8.582,12.387,17.407,13.278c2.267.242,4.696,0,7.206-.729l53.355-14.816c9.958-2.753,25.099-6.882,25.827-7.125.405-.162.891.081,1.053.486.162.404-.081.89-.486,1.052-.891.324-23.398,6.477-25.908,7.125l-53.355,14.816c-2.186.648-4.21.972-6.072.972Z" fill="#333"/><path d="M264.507,236.251c-.324,0-.567-.162-.729-.486-6.234-12.873-.809-21.86-.566-22.184.242-.405.728-.486,1.133-.243s.486.729.243,1.134c-.081.081-5.182,8.663.648,20.645.162.405,0,.891-.405,1.053-.081.081-.243.081-.324.081Z" fill="#333"/><path d="M244.347,214.634c-.486,0-.809-.324-.809-.81s.323-.81.809-.81h5.263c.486,0,.809.324.809.81s-.323.81-.809.81h-5.263Z" fill="#333"/><path d="M329.925,218.439c-.324,0-.648-.243-.81-.567-.08-.404.162-.89.567-.971l3.967-1.134c1.296-.485,1.944-.971,1.782-1.538-.081-.162-.162-.324-.324-.405-.405-.243-1.215-.162-1.781,0-.567.162-1.215.324-1.863.486-.566.162-1.133.243-1.781.405-4.291,1.214-8.015,1.295-8.177,1.295-.405,0-.81-.324-.81-.809c0-.486.324-.81.81-.81c0,0,3.724-.081,7.772-1.215.648-.161,1.296-.323,1.863-.485.647-.162,1.214-.243,1.781-.405.809-.243,2.105-.405,3.076.162.567.324.891.809,1.053,1.457.324,1.457-.567,2.591-2.834,3.401l-4.048,1.133c-.081,0-.162,0-.243,0Z" fill="#333"/></g></g></g></svg>